<svg width="50" height="50" viewBox="0 0 50 50" fill="none" xmlns="http://www.w3.org/2000/svg">
<path d="M19.6647 30H13.858V28.957L16.067 26.7363C16.7194 26.0684 17.151 25.5957 17.362 25.3184C17.5768 25.0371 17.733 24.7734 17.8307 24.5273C17.9284 24.2812 17.9772 24.0176 17.9772 23.7363C17.9772 23.3496 17.86 23.0449 17.6256 22.8223C17.3952 22.5996 17.0748 22.4883 16.6647 22.4883C16.3366 22.4883 16.0182 22.5488 15.7096 22.6699C15.4049 22.791 15.0514 23.0098 14.6491 23.3262L13.9049 22.418C14.3815 22.0156 14.8444 21.7305 15.2936 21.5625C15.7428 21.3945 16.2213 21.3105 16.7291 21.3105C17.526 21.3105 18.1647 21.5195 18.6452 21.9375C19.1256 22.3516 19.3659 22.9102 19.3659 23.6133C19.3659 24 19.2955 24.3672 19.1549 24.7148C19.0182 25.0625 18.8053 25.4219 18.5162 25.793C18.2311 26.1602 17.7545 26.6582 17.0866 27.2871L15.5983 28.7285V28.7871H19.6647V30ZM26.1602 25.7168C26.1602 27.2051 25.9199 28.3105 25.4395 29.0332C24.9629 29.7559 24.2324 30.1172 23.248 30.1172C22.2949 30.1172 21.5723 29.7441 21.0801 28.998C20.5879 28.252 20.3418 27.1582 20.3418 25.7168C20.3418 24.2051 20.5801 23.0918 21.0566 22.377C21.5371 21.6582 22.2676 21.2988 23.248 21.2988C24.2051 21.2988 24.9297 21.6738 25.4219 22.4238C25.9141 23.1738 26.1602 24.2715 26.1602 25.7168ZM21.7363 25.7168C21.7363 26.8848 21.8555 27.7188 22.0938 28.2188C22.3359 28.7188 22.7207 28.9688 23.248 28.9688C23.7754 28.9688 24.1602 28.7148 24.4023 28.207C24.6484 27.6992 24.7715 26.8691 24.7715 25.7168C24.7715 24.5684 24.6484 23.7383 24.4023 23.2266C24.1602 22.7109 23.7754 22.4531 23.248 22.4531C22.7207 22.4531 22.3359 22.7051 22.0938 23.209C21.8555 23.7129 21.7363 24.5488 21.7363 25.7168ZM27.9564 24C27.9564 24.582 28.013 25.0156 28.1263 25.3008C28.2396 25.5859 28.4252 25.7285 28.683 25.7285C29.1986 25.7285 29.4564 25.1523 29.4564 24C29.4564 22.8477 29.1986 22.2715 28.683 22.2715C28.4252 22.2715 28.2396 22.4141 28.1263 22.6992C28.013 22.9844 27.9564 23.418 27.9564 24ZM30.5931 23.9883C30.5931 24.8867 30.431 25.5625 30.1068 26.0156C29.7865 26.4648 29.3119 26.6895 28.683 26.6895C28.0892 26.6895 27.6283 26.457 27.3002 25.9922C26.9759 25.5234 26.8138 24.8555 26.8138 23.9883C26.8138 22.2031 27.4369 21.3105 28.683 21.3105C29.2962 21.3105 29.767 21.543 30.0951 22.0078C30.4271 22.4688 30.5931 23.1289 30.5931 23.9883ZM33.5345 27.4219C33.5345 28.0039 33.5912 28.4395 33.7045 28.7285C33.8216 29.0176 34.0091 29.1621 34.267 29.1621C34.7787 29.1621 35.0345 28.582 35.0345 27.4219C35.0345 26.2773 34.7787 25.7051 34.267 25.7051C34.0091 25.7051 33.8216 25.8457 33.7045 26.127C33.5912 26.4082 33.5345 26.8398 33.5345 27.4219ZM36.1712 27.4219C36.1712 28.3203 36.0091 28.9941 35.6849 29.4434C35.3607 29.8926 34.888 30.1172 34.267 30.1172C33.6732 30.1172 33.2123 29.8867 32.8841 29.4258C32.556 28.9609 32.392 28.293 32.392 27.4219C32.392 25.6367 33.017 24.7441 34.267 24.7441C34.8685 24.7441 35.3353 24.9746 35.6673 25.4355C36.0033 25.8965 36.1712 26.5586 36.1712 27.4219ZM34.431 21.4336L29.6791 30H28.5423L33.2943 21.4336H34.431Z" fill="#ED5454"/>
<path style="mix-blend-mode:multiply" d="M19.6647 30H13.858V28.957L16.067 26.7363C16.7194 26.0684 17.151 25.5957 17.362 25.3184C17.5768 25.0371 17.733 24.7734 17.8307 24.5273C17.9284 24.2812 17.9772 24.0176 17.9772 23.7363C17.9772 23.3496 17.86 23.0449 17.6256 22.8223C17.3952 22.5996 17.0748 22.4883 16.6647 22.4883C16.3366 22.4883 16.0182 22.5488 15.7096 22.6699C15.4049 22.791 15.0514 23.0098 14.6491 23.3262L13.9049 22.418C14.3815 22.0156 14.8444 21.7305 15.2936 21.5625C15.7428 21.3945 16.2213 21.3105 16.7291 21.3105C17.526 21.3105 18.1647 21.5195 18.6452 21.9375C19.1256 22.3516 19.3659 22.9102 19.3659 23.6133C19.3659 24 19.2955 24.3672 19.1549 24.7148C19.0182 25.0625 18.8053 25.4219 18.5162 25.793C18.2311 26.1602 17.7545 26.6582 17.0866 27.2871L15.5983 28.7285V28.7871H19.6647V30ZM26.1602 25.7168C26.1602 27.2051 25.9199 28.3105 25.4395 29.0332C24.9629 29.7559 24.2324 30.1172 23.248 30.1172C22.2949 30.1172 21.5723 29.7441 21.0801 28.998C20.5879 28.252 20.3418 27.1582 20.3418 25.7168C20.3418 24.2051 20.5801 23.0918 21.0566 22.377C21.5371 21.6582 22.2676 21.2988 23.248 21.2988C24.2051 21.2988 24.9297 21.6738 25.4219 22.4238C25.9141 23.1738 26.1602 24.2715 26.1602 25.7168ZM21.7363 25.7168C21.7363 26.8848 21.8555 27.7188 22.0938 28.2188C22.3359 28.7188 22.7207 28.9688 23.248 28.9688C23.7754 28.9688 24.1602 28.7148 24.4023 28.207C24.6484 27.6992 24.7715 26.8691 24.7715 25.7168C24.7715 24.5684 24.6484 23.7383 24.4023 23.2266C24.1602 22.7109 23.7754 22.4531 23.248 22.4531C22.7207 22.4531 22.3359 22.7051 22.0938 23.209C21.8555 23.7129 21.7363 24.5488 21.7363 25.7168ZM27.9564 24C27.9564 24.582 28.013 25.0156 28.1263 25.3008C28.2396 25.5859 28.4252 25.7285 28.683 25.7285C29.1986 25.7285 29.4564 25.1523 29.4564 24C29.4564 22.8477 29.1986 22.2715 28.683 22.2715C28.4252 22.2715 28.2396 22.4141 28.1263 22.6992C28.013 22.9844 27.9564 23.418 27.9564 24ZM30.5931 23.9883C30.5931 24.8867 30.431 25.5625 30.1068 26.0156C29.7865 26.4648 29.3119 26.6895 28.683 26.6895C28.0892 26.6895 27.6283 26.457 27.3002 25.9922C26.9759 25.5234 26.8138 24.8555 26.8138 23.9883C26.8138 22.2031 27.4369 21.3105 28.683 21.3105C29.2962 21.3105 29.767 21.543 30.0951 22.0078C30.4271 22.4688 30.5931 23.1289 30.5931 23.9883ZM33.5345 27.4219C33.5345 28.0039 33.5912 28.4395 33.7045 28.7285C33.8216 29.0176 34.0091 29.1621 34.267 29.1621C34.7787 29.1621 35.0345 28.582 35.0345 27.4219C35.0345 26.2773 34.7787 25.7051 34.267 25.7051C34.0091 25.7051 33.8216 25.8457 33.7045 26.127C33.5912 26.4082 33.5345 26.8398 33.5345 27.4219ZM36.1712 27.4219C36.1712 28.3203 36.0091 28.9941 35.6849 29.4434C35.3607 29.8926 34.888 30.1172 34.267 30.1172C33.6732 30.1172 33.2123 29.8867 32.8841 29.4258C32.556 28.9609 32.392 28.293 32.392 27.4219C32.392 25.6367 33.017 24.7441 34.267 24.7441C34.8685 24.7441 35.3353 24.9746 35.6673 25.4355C36.0033 25.8965 36.1712 26.5586 36.1712 27.4219ZM34.431 21.4336L29.6791 30H28.5423L33.2943 21.4336H34.431Z" fill="url(#paint0_linear)" fill-opacity="0.4"/>
<path d="M50 25C50 38.8071 38.8071 50 25 50C11.1929 50 0 38.8071 0 25C0 11.1929 11.1929 0 25 0C38.8071 0 50 11.1929 50 25ZM5.42012 25C5.42012 35.8137 14.1863 44.5799 25 44.5799C35.8137 44.5799 44.5799 35.8137 44.5799 25C44.5799 14.1863 35.8137 5.42012 25 5.42012C14.1863 5.42012 5.42012 14.1863 5.42012 25Z" fill="#FAF9FD"/>
<path d="M25 2.71006C25 1.21334 23.7831 -0.0152016 22.2951 0.146728C17.9863 0.615649 13.8566 2.19912 10.3228 4.7619C6.78906 7.32468 4.00101 10.7581 2.21672 14.7081C1.60056 16.0721 2.39026 17.6105 3.81293 18.0754C5.2356 18.5404 6.74929 17.7526 7.40611 16.4077C8.80777 13.5376 10.8971 11.0409 13.5049 9.14962C16.1128 7.25834 19.135 6.04805 22.2985 5.60736C23.7809 5.40085 25 4.20679 25 2.71006Z" fill="#ED5454"/>
<path style="mix-blend-mode:multiply" d="M25 2.71006C25 1.21334 23.7831 -0.0152016 22.2951 0.146728C17.9863 0.615649 13.8566 2.19912 10.3228 4.7619C6.78906 7.32468 4.00101 10.7581 2.21672 14.7081C1.60056 16.0721 2.39026 17.6105 3.81293 18.0754C5.2356 18.5404 6.74929 17.7526 7.40611 16.4077C8.80777 13.5376 10.8971 11.0409 13.5049 9.14962C16.1128 7.25834 19.135 6.04805 22.2985 5.60736C23.7809 5.40085 25 4.20679 25 2.71006Z" fill="url(#paint1_linear)" fill-opacity="0.4"/>
<defs>
<linearGradient id="paint0_linear" x1="25" y1="17" x2="25" y2="33" gradientUnits="userSpaceOnUse">
<stop stop-color="#2C52D8" stop-opacity="0"/>
<stop offset="1" stop-color="#2C52D8"/>
</linearGradient>
<linearGradient id="paint1_linear" x1="25" y1="-2.1724e-06" x2="25" y2="50" gradientUnits="userSpaceOnUse">
<stop stop-color="#D82C2C" stop-opacity="0"/>
<stop offset="1" stop-color="#D82C2C"/>
</linearGradient>
</defs>
</svg>
