<svg width="50" height="50" viewBox="0 0 50 50" fill="none" xmlns="http://www.w3.org/2000/svg">
<path d="M22.9124 25.7168C22.9124 27.2051 22.6722 28.3105 22.1917 29.0332C21.7152 29.7559 20.9847 30.1172 20.0003 30.1172C19.0472 30.1172 18.3245 29.7441 17.8323 28.998C17.3402 28.252 17.0941 27.1582 17.0941 25.7168C17.0941 24.2051 17.3323 23.0918 17.8089 22.377C18.2894 21.6582 19.0198 21.2988 20.0003 21.2988C20.9573 21.2988 21.682 21.6738 22.1741 22.4238C22.6663 23.1738 22.9124 24.2715 22.9124 25.7168ZM18.4886 25.7168C18.4886 26.8848 18.6077 27.7188 18.846 28.2188C19.0882 28.7188 19.473 28.9688 20.0003 28.9688C20.5277 28.9688 20.9124 28.7148 21.1546 28.207C21.4007 27.6992 21.5238 26.8691 21.5238 25.7168C21.5238 24.5684 21.4007 23.7383 21.1546 23.2266C20.9124 22.7109 20.5277 22.4531 20.0003 22.4531C19.473 22.4531 19.0882 22.7051 18.846 23.209C18.6077 23.7129 18.4886 24.5488 18.4886 25.7168ZM24.7087 24C24.7087 24.582 24.7653 25.0156 24.8786 25.3008C24.9919 25.5859 25.1774 25.7285 25.4352 25.7285C25.9509 25.7285 26.2087 25.1523 26.2087 24C26.2087 22.8477 25.9509 22.2715 25.4352 22.2715C25.1774 22.2715 24.9919 22.4141 24.8786 22.6992C24.7653 22.9844 24.7087 23.418 24.7087 24ZM27.3454 23.9883C27.3454 24.8867 27.1833 25.5625 26.8591 26.0156C26.5387 26.4648 26.0641 26.6895 25.4352 26.6895C24.8415 26.6895 24.3805 26.457 24.0524 25.9922C23.7282 25.5234 23.5661 24.8555 23.5661 23.9883C23.5661 22.2031 24.1891 21.3105 25.4352 21.3105C26.0485 21.3105 26.5192 21.543 26.8473 22.0078C27.1794 22.4688 27.3454 23.1289 27.3454 23.9883ZM30.2868 27.4219C30.2868 28.0039 30.3434 28.4395 30.4567 28.7285C30.5739 29.0176 30.7614 29.1621 31.0192 29.1621C31.5309 29.1621 31.7868 28.582 31.7868 27.4219C31.7868 26.2773 31.5309 25.7051 31.0192 25.7051C30.7614 25.7051 30.5739 25.8457 30.4567 26.127C30.3434 26.4082 30.2868 26.8398 30.2868 27.4219ZM32.9235 27.4219C32.9235 28.3203 32.7614 28.9941 32.4372 29.4434C32.113 29.8926 31.6403 30.1172 31.0192 30.1172C30.4255 30.1172 29.9645 29.8867 29.6364 29.4258C29.3083 28.9609 29.1442 28.293 29.1442 27.4219C29.1442 25.6367 29.7692 24.7441 31.0192 24.7441C31.6208 24.7441 32.0876 24.9746 32.4196 25.4355C32.7555 25.8965 32.9235 26.5586 32.9235 27.4219ZM31.1833 21.4336L26.4313 30H25.2946L30.0466 21.4336H31.1833Z" fill="#ED5454"/>
<path style="mix-blend-mode:multiply" d="M22.9124 25.7168C22.9124 27.2051 22.6722 28.3105 22.1917 29.0332C21.7152 29.7559 20.9847 30.1172 20.0003 30.1172C19.0472 30.1172 18.3245 29.7441 17.8323 28.998C17.3402 28.252 17.0941 27.1582 17.0941 25.7168C17.0941 24.2051 17.3323 23.0918 17.8089 22.377C18.2894 21.6582 19.0198 21.2988 20.0003 21.2988C20.9573 21.2988 21.682 21.6738 22.1741 22.4238C22.6663 23.1738 22.9124 24.2715 22.9124 25.7168ZM18.4886 25.7168C18.4886 26.8848 18.6077 27.7188 18.846 28.2188C19.0882 28.7188 19.473 28.9688 20.0003 28.9688C20.5277 28.9688 20.9124 28.7148 21.1546 28.207C21.4007 27.6992 21.5238 26.8691 21.5238 25.7168C21.5238 24.5684 21.4007 23.7383 21.1546 23.2266C20.9124 22.7109 20.5277 22.4531 20.0003 22.4531C19.473 22.4531 19.0882 22.7051 18.846 23.209C18.6077 23.7129 18.4886 24.5488 18.4886 25.7168ZM24.7087 24C24.7087 24.582 24.7653 25.0156 24.8786 25.3008C24.9919 25.5859 25.1774 25.7285 25.4352 25.7285C25.9509 25.7285 26.2087 25.1523 26.2087 24C26.2087 22.8477 25.9509 22.2715 25.4352 22.2715C25.1774 22.2715 24.9919 22.4141 24.8786 22.6992C24.7653 22.9844 24.7087 23.418 24.7087 24ZM27.3454 23.9883C27.3454 24.8867 27.1833 25.5625 26.8591 26.0156C26.5387 26.4648 26.0641 26.6895 25.4352 26.6895C24.8415 26.6895 24.3805 26.457 24.0524 25.9922C23.7282 25.5234 23.5661 24.8555 23.5661 23.9883C23.5661 22.2031 24.1891 21.3105 25.4352 21.3105C26.0485 21.3105 26.5192 21.543 26.8473 22.0078C27.1794 22.4688 27.3454 23.1289 27.3454 23.9883ZM30.2868 27.4219C30.2868 28.0039 30.3434 28.4395 30.4567 28.7285C30.5739 29.0176 30.7614 29.1621 31.0192 29.1621C31.5309 29.1621 31.7868 28.582 31.7868 27.4219C31.7868 26.2773 31.5309 25.7051 31.0192 25.7051C30.7614 25.7051 30.5739 25.8457 30.4567 26.127C30.3434 26.4082 30.2868 26.8398 30.2868 27.4219ZM32.9235 27.4219C32.9235 28.3203 32.7614 28.9941 32.4372 29.4434C32.113 29.8926 31.6403 30.1172 31.0192 30.1172C30.4255 30.1172 29.9645 29.8867 29.6364 29.4258C29.3083 28.9609 29.1442 28.293 29.1442 27.4219C29.1442 25.6367 29.7692 24.7441 31.0192 24.7441C31.6208 24.7441 32.0876 24.9746 32.4196 25.4355C32.7555 25.8965 32.9235 26.5586 32.9235 27.4219ZM31.1833 21.4336L26.4313 30H25.2946L30.0466 21.4336H31.1833Z" fill="url(#paint0_linear)" fill-opacity="0.4"/>
<path d="M50 25C50 38.8071 38.8071 50 25 50C11.1929 50 0 38.8071 0 25C0 11.1929 11.1929 0 25 0C38.8071 0 50 11.1929 50 25ZM5.42012 25C5.42012 35.8137 14.1863 44.5799 25 44.5799C35.8137 44.5799 44.5799 35.8137 44.5799 25C44.5799 14.1863 35.8137 5.42012 25 5.42012C14.1863 5.42012 5.42012 14.1863 5.42012 25Z" fill="#FAF9FD"/>
<path d="M25 0.26496C25 0.118626 24.8814 -0.000147313 24.735 0.00140357C24.5887 0.00295444 24.4726 0.124215 24.4757 0.270516L24.5806 5.21705C24.583 5.33163 24.6779 5.42244 24.7925 5.42122C24.9071 5.42001 25 5.32721 25 5.21261V0.26496Z" fill="#ED5454"/>
<path style="mix-blend-mode:multiply" d="M25 0.26496C25 0.118626 24.8814 -0.000147313 24.735 0.00140357C24.5887 0.00295444 24.4726 0.124215 24.4757 0.270516L24.5806 5.21705C24.583 5.33163 24.6779 5.42244 24.7925 5.42122C24.9071 5.42001 25 5.32721 25 5.21261V0.26496Z" fill="url(#paint1_linear)" fill-opacity="0.4"/>
<defs>
<linearGradient id="paint0_linear" x1="25" y1="17" x2="25" y2="33" gradientUnits="userSpaceOnUse">
<stop stop-color="#2C52D8" stop-opacity="0"/>
<stop offset="1" stop-color="#2C52D8"/>
</linearGradient>
<linearGradient id="paint1_linear" x1="25" y1="-5.03031e-07" x2="25" y2="50" gradientUnits="userSpaceOnUse">
<stop stop-color="#2C52D8" stop-opacity="0"/>
<stop offset="1" stop-color="#2C52D8"/>
</linearGradient>
</defs>
</svg>
